<svg xmlns="http://www.w3.org/2000/svg"  viewBox="0 0 24 24" width="50px" height="50px"><path d="M 17.214844 2.9863281 A 1.250125 1.250125 0 0 0 16.277344 3.4648438 L 12.351562 8.3339844 L 9.0566406 3.7714844 C 8.7066406 3.2874844 8.1458281 3 7.5488281 3 L 4.078125 3 C 3.420125 3 3.0388281 3.7462969 3.4238281 4.2792969 L 9.1855469 12.257812 L 3.7773438 18.964844 A 1.250125 1.250125 0 1 0 5.7226562 20.535156 L 10.703125 14.359375 L 14.943359 20.228516 C 15.293359 20.712516 15.854172 21 16.451172 21 L 19.921875 21 C 20.579875 21 20.961172 20.253703 20.576172 19.720703 L 13.869141 10.433594 L 18.222656 5.0351562 A 1.250125 1.250125 0 0 0 17.214844 2.9863281 z"/></svg>